<svg width="14" height="14" viewBox="0 0 14 14" fill="none" xmlns="http://www.w3.org/2000/svg">
<g clip-path="url(#clip0_623_2096)">
<path d="M12.4636 13.9914H1.53613C1.24988 13.9914 1.01788 13.7594 1.01788 13.4732V5.11719H12.9819V13.4732C12.9819 13.7594 12.7498 13.9914 12.4636 13.9914Z" fill="#FFC73B"/>
<path d="M1.01788 5.11719H12.9819V6.85597H1.01788V5.11719Z" fill="#EFB025"/>
<path d="M14 3.30318V5.45735C14 5.68742 13.8133 5.87381 13.5832 5.87381H0.416458C0.186386 5.87381 0 5.68742 0 5.45735V3.30318C0 3.0731 0.186386 2.88672 0.416458 2.88672H13.5832C13.8133 2.88672 14 3.0731 14 3.30318Z" fill="#FFC73B"/>
<path d="M6.52403 3.8786C6.43313 3.98445 6.34395 4.0918 6.2569 4.20032C5.93251 4.60396 5.63557 5.02693 5.36716 5.46593C5.28459 5.60094 5.20491 5.73734 5.12758 5.87534H2.28821C2.45409 5.49893 2.63599 5.12947 2.83305 4.76834C3.19044 4.11316 3.59825 3.48447 4.05391 2.88824C4.16275 2.74586 4.27415 2.60519 4.38834 2.46666C4.45669 2.38313 4.52623 2.30078 4.59672 2.21875C4.85585 2.44199 5.11476 2.66501 5.37399 2.88824C5.41415 2.92264 5.45431 2.95746 5.49437 2.99196C5.80028 3.25536 6.10618 3.51865 6.41199 3.78236C6.44948 3.81419 6.48665 3.84656 6.52403 3.8786Z" fill="#EFB025"/>
<path d="M10.7605 5.87534H7.92093C7.84392 5.73734 7.76392 5.60094 7.68135 5.46593C7.41293 5.02693 7.11568 4.60396 6.79161 4.20032C6.70424 4.0918 6.61505 3.98445 6.52405 3.8786C6.56154 3.84656 6.59871 3.81441 6.6362 3.78236C6.94232 3.51865 7.24823 3.25504 7.55403 2.99196C7.59419 2.95746 7.63435 2.92264 7.67452 2.88824C7.93364 2.66501 8.19287 2.44199 8.45178 2.21875C8.52228 2.30057 8.59181 2.38313 8.66017 2.46645C8.77457 2.60519 8.88608 2.74586 8.9946 2.88824C9.45026 3.48447 9.85806 4.11316 10.2157 4.76834C10.4127 5.12947 10.5946 5.49893 10.7605 5.87534Z" fill="#EFB025"/>
<path d="M6.99979 3.87871C6.90878 3.98445 6.8196 4.0918 6.73254 4.20032C6.40826 4.60396 6.11122 5.02693 5.8428 5.46603C4.99066 6.85896 4.42467 8.41499 4.18594 10.0437C3.82716 9.56781 3.49605 9.05298 3.19815 8.50247C2.67413 8.84427 2.16197 9.2352 1.66882 9.67505C1.92207 7.94748 2.48006 6.28699 3.30881 4.76834C3.75143 3.95679 4.27161 3.18571 4.86398 2.46666C4.93234 2.38313 5.00188 2.30089 5.07237 2.21875C5.37166 2.47649 5.67073 2.73422 5.97012 2.99196C6.27592 3.25536 6.58183 3.51865 6.88774 3.78236C6.92513 3.81419 6.9623 3.84656 6.99979 3.87871Z" fill="#FF4440"/>
<path d="M12.3309 9.67505C11.8378 9.2352 11.3256 8.84427 10.8016 8.50247C10.5037 9.05298 10.1726 9.56781 9.81381 10.0437C9.57509 8.41499 9.0092 6.85896 8.15695 5.46603C7.88853 5.02693 7.59128 4.60396 7.26721 4.20032C7.17984 4.0918 7.09065 3.98445 6.99976 3.87871C7.03714 3.84656 7.07431 3.81441 7.1118 3.78236C7.41792 3.51865 7.72383 3.25504 8.02974 2.99196C8.32903 2.7339 8.62842 2.47649 8.92738 2.21875C8.99788 2.30057 9.06741 2.38313 9.13577 2.46645C9.72826 3.1855 10.2484 3.95657 10.6913 4.76834C11.5198 6.28699 12.0777 7.94748 12.3309 9.67505Z" fill="#FF4440"/>
<path d="M5.88531 3.87891H8.11458V5.87543H5.88531V3.87891Z" fill="#FF4440"/>
<path d="M10.6913 4.76674L8.15695 5.46443C7.88854 5.02533 7.59128 4.60236 7.26721 4.19872L7.1118 3.78076L6.99976 3.47934L8.02974 2.99036L9.13577 2.46484C9.72826 3.1839 10.2484 3.95497 10.6913 4.76674Z" fill="#EA2F2F"/>
<path d="M6.99982 3.48108L6.88777 3.7825L6.73258 4.20045C6.4083 4.60409 6.11125 5.02707 5.84284 5.46617L3.30884 4.76848C3.75147 3.95692 4.27164 3.18585 4.86401 2.4668L5.97016 2.9921L6.99982 3.48108Z" fill="#EA2F2F"/>
<path d="M11.0445 0.0968563L6.99988 2.01765L7.77683 4.1072L12.0939 2.91892C12.6585 2.76351 12.9687 2.15757 12.7646 1.60867L12.4083 0.650567C12.2043 0.101663 11.5736 -0.154364 11.0445 0.0968563Z" fill="#FF4440"/>
<path d="M2.95525 0.0968563L6.99988 2.01765L6.22293 4.1072L1.90593 2.91892C1.34133 2.76351 1.03114 2.15757 1.23526 1.60867L1.59148 0.650567C1.79559 0.101663 2.42621 -0.154364 2.95525 0.0968563Z" fill="#FF4440"/>
<path d="M7.96565 2.85664C7.89217 2.85664 7.82007 2.82033 7.77766 2.75378C7.71133 2.65007 7.74156 2.51228 7.84528 2.44595C7.87593 2.42641 8.60439 1.96284 9.44072 1.62457C10.6464 1.13687 11.4516 1.16304 11.8335 1.70233C11.9048 1.80284 11.8809 1.94202 11.7804 2.01315C11.6799 2.08429 11.5408 2.06058 11.4697 1.96007C10.9519 1.22905 8.79889 2.36574 8.0855 2.82161C8.04832 2.84532 8.00677 2.85664 7.96565 2.85664Z" fill="#EA2F2F"/>
<path d="M6.01214 2.85664C5.97102 2.85664 5.92947 2.84532 5.8923 2.82161C5.17891 2.36574 3.02591 1.22905 2.50808 1.96007C2.43684 2.06058 2.29777 2.08429 2.19726 2.01315C2.09686 1.94191 2.07304 1.80284 2.14428 1.70233C2.52624 1.16304 3.33128 1.13687 4.53708 1.62457C5.37341 1.96274 6.10187 2.42641 6.13252 2.44595C6.23623 2.51228 6.26646 2.65007 6.20024 2.75378C6.15762 2.82033 6.08563 2.85664 6.01214 2.85664Z" fill="#EA2F2F"/>
<path d="M7.63414 1.29883H6.36565C6.01851 1.29883 5.73706 1.58028 5.73706 1.92752V3.77034C5.73706 4.11758 6.01851 4.39903 6.36565 4.39903H7.63414C7.98128 4.39903 8.26273 4.11758 8.26273 3.77034V1.92752C8.26273 1.58028 7.98128 1.29883 7.63414 1.29883Z" fill="#EA2F2F"/>
<path d="M5.88531 5.875H8.11458V13.9913H5.88531V5.875Z" fill="#FF4440"/>
<path d="M5.88531 5.875H8.11458V6.85585H5.88531V5.875Z" fill="#EA2F2F"/>
</g>
<defs>
<clipPath id="clip0_623_2096">
<rect width="14" height="14" fill="white"/>
</clipPath>
</defs>
</svg>
