<svg width="15" height="15" viewBox="0 0 15 15" fill="none" xmlns="http://www.w3.org/2000/svg">
<g clip-path="url(#clip0_3_107)">
<path fill-rule="evenodd" clip-rule="evenodd" d="M4.5 4.98348e-07C3.83696 4.98348e-07 3.20107 0.263393 2.73223 0.732234C2.26339 1.20107 2 1.83696 2 2.5V2.786C2 3.234 2.133 3.651 2.362 4H1.5C1.10218 4 0.720644 4.15804 0.43934 4.43934C0.158035 4.72064 0 5.10218 0 5.5L0 6.5C0 6.89783 0.158035 7.27936 0.43934 7.56066C0.720644 7.84197 1.10218 8 1.5 8H7V4H8V8H13.5C13.8978 8 14.2794 7.84197 14.5607 7.56066C14.842 7.27936 15 6.89783 15 6.5V5.5C15 5.10218 14.842 4.72064 14.5607 4.43934C14.2794 4.15804 13.8978 4 13.5 4H12.638C12.867 3.651 13 3.234 13 2.786V2.5C13 1.83696 12.7366 1.20107 12.2678 0.732234C11.7989 0.263393 11.163 4.98348e-07 10.5 4.98348e-07C9.227 4.98348e-07 8.112 0.68 7.5 1.696C7.18889 1.17838 6.74907 0.75013 6.22335 0.452922C5.69763 0.155715 5.10392 -0.000321823 4.5 4.98348e-07ZM8 4H10.786C11.456 4 12 3.456 12 2.786V2.5C12 2.10218 11.842 1.72064 11.5607 1.43934C11.2794 1.15804 10.8978 1 10.5 1C9.83696 1 9.20107 1.26339 8.73223 1.73223C8.26339 2.20107 8 2.83696 8 3.5V4ZM7 4H4.214C3.544 4 3 3.456 3 2.786V2.5C3 2.10218 3.15804 1.72064 3.43934 1.43934C3.72064 1.15804 4.10218 1 4.5 1C4.8283 1 5.15339 1.06466 5.45671 1.1903C5.76002 1.31594 6.03562 1.50009 6.26777 1.73223C6.49991 1.96438 6.68406 2.23998 6.8097 2.54329C6.93534 2.84661 7 3.1717 7 3.5V4Z" fill="#FD9936"/>
<path d="M7 9H1V12.5C1 13.163 1.26339 13.7989 1.73223 14.2678C2.20107 14.7366 2.83696 15 3.5 15H7V9ZM8 15H11.5C12.163 15 12.7989 14.7366 13.2678 14.2678C13.7366 13.7989 14 13.163 14 12.5V9H8V15Z" fill="#FD9936"/>
</g>
<defs>
<clipPath id="clip0_3_107">
<rect width="15" height="15" fill="white"/>
</clipPath>
</defs>
</svg>
