<svg width="26" height="26" viewBox="0 0 26 26" fill="none" xmlns="http://www.w3.org/2000/svg">
<g clip-path="url(#clip0_3_131)">
<path fill-rule="evenodd" clip-rule="evenodd" d="M7.8 8.63802e-07C6.65073 8.63802e-07 5.54853 0.456547 4.73587 1.2692C3.92321 2.08186 3.46667 3.18406 3.46667 4.33333V4.82907C3.46667 5.6056 3.6972 6.3284 4.09413 6.93333H2.6C1.91044 6.93333 1.24912 7.20726 0.761522 7.69486C0.273928 8.18245 0 8.84377 0 9.53333L0 11.2667C0 11.9562 0.273928 12.6175 0.761522 13.1051C1.24912 13.5927 1.91044 13.8667 2.6 13.8667H12.1333V6.93333H13.8667V13.8667H23.4C24.0896 13.8667 24.7509 13.5927 25.2385 13.1051C25.7261 12.6175 26 11.9562 26 11.2667V9.53333C26 8.84377 25.7261 8.18245 25.2385 7.69486C24.7509 7.20726 24.0896 6.93333 23.4 6.93333H21.9059C22.3028 6.3284 22.5333 5.6056 22.5333 4.82907V4.33333C22.5333 3.18406 22.0768 2.08186 21.2641 1.2692C20.4515 0.456547 19.3493 8.63802e-07 18.2 8.63802e-07C15.9935 8.63802e-07 14.0608 1.17867 13 2.93973C12.4607 2.04253 11.6984 1.30023 10.7871 0.785065C9.87589 0.269905 8.84679 -0.000557827 7.8 8.63802e-07ZM13.8667 6.93333H18.6957C19.8571 6.93333 20.8 5.9904 20.8 4.82907V4.33333C20.8 3.64377 20.5261 2.98245 20.0385 2.49486C19.5509 2.00726 18.8896 1.73333 18.2 1.73333C17.0507 1.73333 15.9485 2.18988 15.1359 3.00254C14.3232 3.8152 13.8667 4.9174 13.8667 6.06667V6.93333ZM12.1333 6.93333H7.30427C6.14293 6.93333 5.2 5.9904 5.2 4.82907V4.33333C5.2 3.64377 5.47393 2.98245 5.96152 2.49486C6.44912 2.00726 7.11044 1.73333 7.8 1.73333C8.36906 1.73333 8.93255 1.84542 9.45829 2.06319C9.98404 2.28096 10.4617 2.60015 10.8641 3.00254C11.2665 3.40492 11.5857 3.88263 11.8035 4.40837C12.0212 4.93412 12.1333 5.49761 12.1333 6.06667V6.93333Z" fill="#FD9936"/>
<path d="M12.1334 15.6H1.7334V21.6667C1.7334 22.8159 2.18994 23.9181 3.0026 24.7308C3.81526 25.5435 4.91746 26 6.06673 26H12.1334V15.6ZM13.8667 26H19.9334C21.0827 26 22.1849 25.5435 22.9975 24.7308C23.8102 23.9181 24.2667 22.8159 24.2667 21.6667V15.6H13.8667V26Z" fill="#FD9936"/>
</g>
<defs>
<clipPath id="clip0_3_131">
<rect width="26" height="26" fill="white"/>
</clipPath>
</defs>
</svg>
