<svg width="30" height="26" viewBox="0 0 30 26" fill="none" xmlns="http://www.w3.org/2000/svg">
<path d="M20 0.703125H23.2969L10.0625 25.1719H6.79688L20 0.703125ZM0.546875 6.71875C0.546875 5.65625 0.776042 4.64583 1.23438 3.6875C1.70312 2.72917 2.41146 1.99479 3.35938 1.48438C4.31771 0.963542 5.44792 0.703125 6.75 0.703125C8.66667 0.703125 10.1771 1.25 11.2812 2.34375C12.3854 3.4375 12.9375 4.89583 12.9375 6.71875C12.9375 8.55208 12.3854 10.0156 11.2812 11.1094C10.1771 12.2031 8.66667 12.75 6.75 12.75C5.44792 12.75 4.31771 12.4948 3.35938 11.9844C2.41146 11.4635 1.70312 10.724 1.23438 9.76562C0.776042 8.80729 0.546875 7.79167 0.546875 6.71875ZM4.9375 6.75C4.9375 8.04167 5.14583 8.97917 5.5625 9.5625C5.83333 9.94792 6.22917 10.1406 6.75 10.1406C7.27083 10.1406 7.66146 9.94792 7.92188 9.5625C8.33854 8.97917 8.54688 8.04167 8.54688 6.75C8.54688 5.46875 8.33854 4.53125 7.92188 3.9375C7.66146 3.5625 7.27083 3.375 6.75 3.375C6.22917 3.375 5.83333 3.5625 5.5625 3.9375C5.14583 4.52083 4.9375 5.45833 4.9375 6.75ZM17.0625 19.1094C17.0625 18.0365 17.2917 17.026 17.75 16.0781C18.2083 15.1198 18.9167 14.3802 19.875 13.8594C20.8333 13.3385 21.9583 13.0781 23.25 13.0781C25.1771 13.0781 26.6927 13.6302 27.7969 14.7344C28.901 15.8281 29.4531 17.2865 29.4531 19.1094C29.4531 20.9323 28.901 22.3958 27.7969 23.5C26.6927 24.5938 25.1771 25.1406 23.25 25.1406C21.9583 25.1406 20.8333 24.8802 19.875 24.3594C18.9167 23.8385 18.2083 23.1042 17.75 22.1562C17.2917 21.1979 17.0625 20.1823 17.0625 19.1094ZM21.4531 19.1406C21.4531 20.4323 21.6615 21.3698 22.0781 21.9531C22.3385 22.3281 22.7292 22.5156 23.25 22.5156C23.7708 22.5156 24.1667 22.3281 24.4375 21.9531C24.8542 21.3698 25.0625 20.4323 25.0625 19.1406C25.0625 17.849 24.8542 16.9062 24.4375 16.3125C24.1667 15.9375 23.7708 15.75 23.25 15.75C22.7292 15.75 22.3385 15.9427 22.0781 16.3281C21.6615 16.9115 21.4531 17.849 21.4531 19.1406Z" fill="#FD9936"/>
</svg>
